,
Brought to you by  http://www.scenetime.com/signup.php
 
 Hottest scene tracker on the net !!!   
 
No fake torrents from scenebalance 
shame on those who comment fake before downloading my torrents

    seed back for speed


 



...................................NFO:.................................................[img]http://img847.imageshack.us/img847/5407/thewomanposter.jpg[/img]

[color=blue][size=5][b]The.Woman.2011.DVDSCR.XVID.AC3.HQ.Hive-CM8[/b][/size][/color]


[b]Thx Hive

CM8 Doing It Right The First Time :D

! Jack Ketchums new Horror Movie !
   !!     No known Cinemadate     !!
    !!!     IMDB Rating 8,5     !!!

[url]http://anythinghorror.com/2011/05/03/texas-frightmare-weekend-2011-film-premier-the-woman-2011/[/url]

Encode:
Source had great quality.
It had a constant studio watermark at the right bottom corner, which i blurred away.
Beside that i did the usual, sharpening,rgb,denoise and brightening up a bit for the darker parts.
Enjoy that early movie

Video: 720x400 @bitrate 1800 2pass
Audio: English AC3 2.0 Stereo
Sample: yes included[/b]


[url]http://www.imdb.com/title/tt1714208/[/url]


General
Complete name                    : The.Woman.2011.DVDSCR.XVID.AC3.HQ.Hive-CM8.avi
Format                           : AVI
Format/Info                      : Audio Video Interleave
File size                        : 1.49 GiB
Duration                         : 1h 43mn
Overall bit rate                 : 2 064 Kbps
Writing application              : Nandub v1.0rc2
Writing library                  : Nandub build 1853/release

Video
ID                               : 0
Format                           : MPEG-4 Visual
Format profile                   : Advanced Simple@L5
Format settings, BVOP            : 2
Format settings, QPel            : Yes
Format settings, GMC             : No warppoints
Format settings, Matrix          : Default (H.263)
Muxing mode                      : Packed bitstream
Codec ID                         : XVID
Codec ID/Hint                    : XviD
Duration                         : 1h 43mn
Bit rate                         : 1 799 Kbps
Width                            : 720 pixels
Height                           : 400 pixels
Display aspect ratio             : 16:9
Frame rate                       : 25.000 fps
Color space                      : YUV
Chroma subsampling               : 4:2:0
Bit depth                        : 8 bits
Scan type                        : Progressive
Compression mode                 : Lossy
Bits/(Pixel*Frame)               : 0.250
Stream size                      : 1.30 GiB (87%)
Writing library                  : XviD 1.2.1 (UTC 2008-12-04)

Audio
ID                               : 1
Format                           : AC-3
Format/Info                      : Audio Coding 3
Mode extension                   : CM (complete main)
Codec ID                         : 2000
Duration                         : 1h 43mn
Bit rate mode                    : Constant
Bit rate                         : 256 Kbps
Channel(s)                       : 2 channels
Channel positions                : Front: L R
Sampling rate                    : 48.0 KHz
Bit depth                        : 16 bits
Compression mode                 : Lossy
Delay relative to video          : 24ms
Stream size                      : 189 MiB (12%)
Alignment                        : Split accross interleaves
Interleave, duration             : 40 ms (1.00 video frame)
Interleave, preload duration     : 500 ms



Carlee Baker	 ... 	Genevieve Raton
Shana Barry	... 	Fat Tourist Girl - Cartoon
Marcia Bennett	... 	Deana
Angela Bettis	... 	Belle Cleek
Sean Bridgers	... 	Chris Cleek
Lauren Ashley Carter	... 	Peggy Cleek


When a successful country lawyer captures and attempts to "civilize" the last 
remaining member of a violent clan that has roamed the Northeast coast for decades, 
he puts the lives of his family in jeopardy.  

 

[img]http://img69.imageshack.us/img69/8823/wowowowowowo.png[/img]
[img]http://img705.imageshack.us/img705/3139/41405164.png[/img]
[img]http://img5.imageshack.us/img5/2892/wowory.png[/img]
[img]http://img690.imageshack.us/img690/6210/wowowo.png[/img]
[img]http://img40.imageshack.us/img40/4010/wowowowod.png[/img]
[img]http://img864.imageshack.us/img864/6313/wowowowowo.png[/img]



Greetz

ViSiON,SANTi,MAGNET,THC,T0XiC,iNK,LKRG,IMAGiNE,WBZ,FLAWL3SS,NOVA
Vik,OneTwo,Rapeseed,D2U,SAFC,goldadvance,MEMORY100,KaN1vE,Unevano,Pinnz,Wayne,Mr Hive
and all P2P groups 
Great Work Guys :D

FYS

CM8@hushmail.com